<?xml version="1.0" encoding="UTF-8"?>
<svg id="Layer_1" xmlns="http://www.w3.org/2000/svg" version="1.1" viewBox="0 0 32.1 31.7">
  <!-- Generator: Adobe Illustrator 29.0.1, SVG Export Plug-In . SVG Version: 2.1.0 Build 192)  -->
  <defs>
    <style>
      .st0 {
        fill: #966011;
      }

      .st0, .st1 {
        fill-rule: evenodd;
      }

      .st1 {
        fill: #ffc81a;
      }
    </style>
  </defs>
  <path class="st1" d="M13.2,30.9c-5.6,0-10.1-4.8-10.1-10.4s4.6-10.2,10.2-10.2h17.7c0-.5-.3-1.2-.9-1.7L22.5.8c-1.4-1.4-3.5-.9-3.5.9v4.1h-5.3C6.7,5.8,1,11.5,1,18.6s5.5,13.1,12.6,13.1.8-.3.8-.7h-1.1Z"/>
  <path class="st0" d="M5.8,22.8c0-4.4,3.5-7.9,7.9-7.9h5.3v4.1c0,1.8,2.1,2.3,3.5.9l7.7-7.8c.6-.5.9-1.2.9-1.7H13.4c-5.6,0-10.2,4.6-10.2,10.2s4.4,10.4,10.1,10.4h1.1c0-.3-.3-.7-.8-.7-4.4,0-7.7-3.1-7.7-7.5h0Z"/>
</svg>