<?xml version="1.0" encoding="UTF-8"?>
<svg id="Layer_1" xmlns="http://www.w3.org/2000/svg" version="1.1" viewBox="0 0 32.1 31.7">
  <!-- Generator: Adobe Illustrator 29.0.1, SVG Export Plug-In . SVG Version: 2.1.0 Build 192)  -->
  <defs>
    <style>
      .st0 {
        fill: #17a2ff;
      }

      .st0, .st1 {
        fill-rule: evenodd;
      }

      .st1 {
        fill: #087cbc;
      }
    </style>
  </defs>
  <g id="Layer_x5F_1">
    <path class="st0" d="M17.5,31c0,.3.3.7.8.7,7.1,0,12.6-6.1,12.6-13.1s-5.7-12.8-12.8-12.8h-5.3V1.7c0-1.8-2.1-2.3-3.5-.9L1.6,8.6c-.6.5-.9,1.2-.9,1.7h17.8c5.6,0,10.2,4.6,10.2,10.2s-4.5,10.4-10.1,10.4h-1.1Z"/>
    <path class="st1" d="M18.3,30.3c-.5,0-.8.3-.8.7h1.1c5.6,0,10.1-4.8,10.1-10.4s-4.6-10.2-10.2-10.2H.7c0,.5.3,1.2.9,1.7l7.8,7.8c1.4,1.4,3.5.9,3.5-.9v-4.1h5.3c4.4,0,7.9,3.6,7.9,8s-3.4,7.5-7.8,7.5h0Z"/>
  </g>
</svg>